<svg version="1.1" viewBox="0.0 0.0 960.0 720.0" fill="none" stroke="none" stroke-linecap="square" stroke-miterlimit="10" xmlns:xlink="http://www.w3.org/1999/xlink" xmlns="http://www.w3.org/2000/svg"><clipPath id="p.0"><path d="m0 0l960.0 0l0 720.0l-960.0 0l0 -720.0z" clip-rule="nonzero"/></clipPath><g clip-path="url(#p.0)"><path fill="#000000" fill-opacity="0.0" d="m0 0l960.0 0l0 720.0l-960.0 0z" fill-rule="evenodd"/><path fill="#6aa84f" d="m232.08923 293.03412l0 0c0 -86.226 69.899994 -156.12598 156.12598 -156.12598l0 0c41.407196 0 81.11844 16.448929 110.397766 45.72824c29.279297 29.279297 45.72821 68.990555 45.72821 110.397736l0 0c0 86.22601 -69.89996 156.12598 -156.12598 156.12598l0 0c-86.22598 0 -156.12598 -69.89996 -156.12598 -156.12598z" fill-rule="evenodd"/><path stroke="#38761d" stroke-width="1.0" stroke-linejoin="round" stroke-linecap="butt" d="m232.08923 293.03412l0 0c0 -86.226 69.899994 -156.12598 156.12598 -156.12598l0 0c41.407196 0 81.11844 16.448929 110.397766 45.72824c29.279297 29.279297 45.72821 68.990555 45.72821 110.397736l0 0c0 86.22601 -69.89996 156.12598 -156.12598 156.12598l0 0c-86.22598 0 -156.12598 -69.89996 -156.12598 -156.12598z" fill-rule="evenodd"/><path fill="#93c47d" d="m388.2152 158.82939l0 0c69.05826 0 126.84314 52.407593 133.56708 121.13771c6.723938 68.7301 -39.80832 131.34317 -107.55719 144.72717l-4.860199 -24.60202c55.089294 -10.883057 92.926575 -61.796234 87.459045 -117.68344c-5.467499 -55.887222 -52.454712 -98.50192 -108.608734 -98.50192z" fill-rule="evenodd"/><path stroke="#38761d" stroke-width="1.0" stroke-linejoin="round" stroke-linecap="butt" d="m388.2152 158.82939l0 0c69.05826 0 126.84314 52.407593 133.56708 121.13771c6.723938 68.7301 -39.80832 131.34317 -107.55719 144.72717l-4.860199 -24.60202c55.089294 -10.883057 92.926575 -61.796234 87.459045 -117.68344c-5.467499 -55.887222 -52.454712 -98.50192 -108.608734 -98.50192z" fill-rule="evenodd"/><path fill="#93c47d" d="m465.44437 350.48865l0 0c-26.769592 35.983765 -74.84003 48.716827 -115.9126 30.703278c-41.0726 -18.01352 -64.26642 -62.001526 -55.92743 -106.0686c8.338959 -44.067047 46.001587 -76.53897 90.81613 -78.299774l0.90078735 22.926514c-34.13434 1.341156 -62.821198 26.074371 -69.17282 59.639374c-6.3516235 33.565002 11.314636 67.06979 42.598785 80.790344c31.28418 13.720551 67.89847 4.0220337 88.28833 -23.386108z" fill-rule="evenodd"/><path stroke="#38761d" stroke-width="1.0" stroke-linejoin="round" stroke-linecap="butt" d="m465.44437 350.48865l0 0c-26.769592 35.983765 -74.84003 48.716827 -115.9126 30.703278c-41.0726 -18.01352 -64.26642 -62.001526 -55.92743 -106.0686c8.338959 -44.067047 46.001587 -76.53897 90.81613 -78.299774l0.90078735 22.926514c-34.13434 1.341156 -62.821198 26.074371 -69.17282 59.639374c-6.3516235 33.565002 11.314636 67.06979 42.598785 80.790344c31.28418 13.720551 67.89847 4.0220337 88.28833 -23.386108z" fill-rule="evenodd"/><path fill="#000000" fill-opacity="0.0" d="m245.49081 238.7664l312.25198 0l0 108.535446l-312.25198 0z" fill-rule="evenodd"/><path fill="#ffffff" d="m256.95956 257.9289l12.421875 0q5.03125 0 7.734375 0.796875q2.71875 0.796875 4.078125 2.296875q1.359375 1.484375 1.84375 3.609375q0.484375 2.125 0.484375 6.578125l0 4.125q0 4.546875 -0.9375 6.625q-0.9375 2.078125 -3.4375 3.1875q-2.5 1.109375 -6.546875 1.109375l-3.3125 0l0 19.109375l-12.328125 0l0 -47.4375zm12.328125 8.125l0 12.0625q0.53125 0.03125 0.90625 0.03125q1.703125 0 2.359375 -0.828125q0.65625 -0.84375 0.65625 -3.484375l0 -3.890625q0 -2.4375 -0.765625 -3.15625q-0.75 -0.734375 -3.15625 -0.734375zm29.273438 0.4375l-0.46875 5.09375q2.578125 -5.484375 7.46875 -5.796875l0 13.671875q-3.25 0 -4.78125 0.890625q-1.515625 0.875 -1.875 2.453125q-0.34375 1.5625 -0.34375 7.203125l0 15.359375l-11.84375 0l0 -38.875l11.84375 0zm36.41211 13.65625l0 9.515625q0 5.25 -0.53125 7.703125q-0.53125 2.4375 -2.265625 4.5625q-1.71875 2.125 -4.4375 3.140625q-2.703125 1.0 -6.21875 1.0q-3.921875 0 -6.65625 -0.859375q-2.71875 -0.875 -4.234375 -2.609375q-1.5 -1.75 -2.140625 -4.21875q-0.640625 -2.484375 -0.640625 -7.4375l0 -9.953125q0 -5.421875 1.171875 -8.46875q1.171875 -3.046875 4.21875 -4.890625q3.046875 -1.84375 7.78125 -1.84375q3.984375 0 6.84375 1.1875q2.859375 1.1875 4.40625 3.09375q1.5625 1.890625 2.125 3.921875q0.578125 2.015625 0.578125 6.15625zm-11.84375 -2.9375q0 -2.984375 -0.328125 -3.765625q-0.3125 -0.78125 -1.359375 -0.78125q-1.0625 0 -1.421875 0.78125q-0.34375 0.78125 -0.34375 3.765625l0 17.546875q0 2.75 0.34375 3.59375q0.359375 0.828125 1.390625 0.828125q1.046875 0 1.375 -0.75q0.34375 -0.765625 0.34375 -3.28125l0 -17.9375zm41.89258 3.953125l-11.15625 0l0 -4.484375q0 -2.34375 -0.390625 -3.171875q-0.375 -0.84375 -1.390625 -0.84375q-1.03125 0 -1.390625 0.734375q-0.34375 0.734375 -0.34375 3.28125l0 18.34375q0 2.078125 0.53125 3.125q0.53125 1.03125 1.546875 1.03125q1.203125 0 1.625 -1.078125q0.421875 -1.078125 0.421875 -4.109375l0 -4.625l10.546875 0q-0.015625 4.65625 -0.328125 6.984375q-0.3125 2.328125 -1.96875 4.78125q-1.65625 2.453125 -4.328125 3.703125q-2.65625 1.234375 -6.578125 1.234375q-5.015625 0 -7.953125 -1.703125q-2.921875 -1.71875 -4.140625 -4.8125q-1.203125 -3.09375 -1.203125 -8.78125l0 -11.046875q0 -4.953125 0.984375 -7.46875q1.0 -2.515625 4.25 -4.484375q3.25 -1.984375 7.90625 -1.984375q4.640625 0 7.921875 1.96875q3.28125 1.953125 4.359375 4.953125q1.078125 2.984375 1.078125 8.453125zm30.333984 5.453125l-15.328125 0l0 8.40625q0 2.640625 0.375 3.40625q0.390625 0.75 1.46875 0.75q1.34375 0 1.796875 -1.0q0.46875 -1.015625 0.46875 -3.921875l0 -5.125l11.21875 0l0 2.875q0 3.609375 -0.453125 5.546875q-0.453125 1.921875 -2.125 4.125q-1.671875 2.1875 -4.234375 3.296875q-2.5625 1.09375 -6.4375 1.09375q-3.75 0 -6.625 -1.078125q-2.859375 -1.09375 -4.46875 -2.984375q-1.59375 -1.890625 -2.203125 -4.15625q-0.609375 -2.265625 -0.609375 -6.609375l0 -11.328125q0 -5.109375 1.375 -8.046875q1.375 -2.953125 4.5 -4.515625q3.140625 -1.5625 7.21875 -1.5625q4.96875 0 8.203125 1.890625q3.25 1.890625 4.546875 5.015625q1.3125 3.109375 1.3125 8.765625l0 5.15625zm-11.875 -6.328125l0 -2.84375q0 -3.015625 -0.328125 -3.890625q-0.3125 -0.890625 -1.3125 -0.890625q-1.21875 0 -1.515625 0.75q-0.296875 0.75 -0.296875 4.03125l0 2.84375l3.453125 0zm39.908203 -1.375l-10.484375 0l0 -2.109375q0 -2.703125 -0.3125 -3.421875q-0.3125 -0.71875 -1.53125 -0.71875q-1.0 0 -1.5 0.671875q-0.5 0.65625 -0.5 1.96875q0 1.796875 0.25 2.625q0.25 0.828125 1.484375 1.828125q1.25 1.0 5.125 2.90625q5.15625 2.515625 6.765625 4.75q1.609375 2.21875 1.609375 6.46875q0 4.75 -1.234375 7.171875q-1.21875 2.40625 -4.109375 3.71875q-2.890625 1.296875 -6.953125 1.296875q-4.515625 0 -7.734375 -1.40625q-3.203125 -1.40625 -4.40625 -3.8125q-1.203125 -2.40625 -1.203125 -7.265625l0 -1.875l10.5 0l0 2.46875q0 3.125 0.390625 4.0625q0.390625 0.9375 1.5625 0.9375q1.265625 0 1.765625 -0.625q0.5 -0.625 0.5 -2.65625q0 -2.78125 -0.65625 -3.484375q-0.671875 -0.703125 -6.875 -4.15625q-5.21875 -2.9375 -6.359375 -5.3125q-1.140625 -2.390625 -1.140625 -5.671875q0 -4.65625 1.21875 -6.859375q1.234375 -2.21875 4.171875 -3.421875q2.953125 -1.203125 6.859375 -1.203125q3.859375 0 6.5625 0.984375q2.71875 0.96875 4.171875 2.59375q1.453125 1.609375 1.75 2.984375q0.3125 1.375 0.3125 4.296875l0 2.265625zm16.257812 -20.984375l0 6.1875l-12.1875 0l0 -6.1875l12.1875 0zm0 8.5625l0 38.875l-12.1875 0l0 -38.875l12.1875 0zm28.716797 0l-5.546875 38.875l-15.4375 0l-5.953125 -38.875l10.578125 0l3.3125 28.359375q0.390625 -3.109375 1.296875 -15.234375q0.53125 -6.765625 1.171875 -13.125l10.578125 0zm12.330078 15.0625l-11.109375 0l0 -2.609375q0 -4.515625 1.03125 -6.953125q1.046875 -2.453125 4.1875 -4.328125q3.140625 -1.875 8.140625 -1.875q6.015625 0 9.0625 2.125q3.046875 2.125 3.65625 5.21875q0.609375 3.078125 0.609375 12.71875l0 19.515625l-11.5 0l0 -3.453125q-1.09375 2.078125 -2.8125 3.125q-1.703125 1.03125 -4.078125 1.03125q-3.109375 0 -5.703125 -1.734375q-2.59375 -1.75 -2.59375 -7.640625l0 -3.1875q0 -4.375 1.375 -5.953125q1.390625 -1.578125 6.828125 -3.6875q5.828125 -2.296875 6.234375 -3.078125q0.421875 -0.796875 0.421875 -3.21875q0 -3.046875 -0.453125 -3.96875q-0.453125 -0.9375 -1.515625 -0.9375q-1.203125 0 -1.5 0.78125q-0.28125 0.78125 -0.28125 4.03125l0 4.078125zm3.75 5.328125q-2.84375 2.078125 -3.296875 3.484375q-0.453125 1.40625 -0.453125 4.046875q0 3.015625 0.390625 3.890625q0.40625 0.875 1.578125 0.875q1.109375 0 1.4375 -0.6875q0.34375 -0.6875 0.34375 -3.609375l0 -8.0zm28.09372 -28.953125l0 47.4375l-12.1874695 0l0 -47.4375l12.1874695 0z" fill-rule="nonzero"/><path fill="#93c47d" d="m390.9853 427.21027l0 0c-65.12158 1.3444214 -121.80649 -44.26581 -134.4302 -108.16626l24.60202 -4.8602295c10.264862 51.960022 56.357605 89.04755 109.31058 87.954315z" fill-rule="evenodd"/><path stroke="#38761d" stroke-width="1.0" stroke-linejoin="round" stroke-linecap="butt" d="m390.9853 427.21027l0 0c-65.12158 1.3444214 -121.80649 -44.26581 -134.4302 -108.16626l24.60202 -4.8602295c10.264862 51.960022 56.357605 89.04755 109.31058 87.954315z" fill-rule="evenodd"/></g></svg>